<?xml version="1.0" encoding="UTF-8"?>
<svg width="33px" height="33px" viewBox="0 0 33 33" version="1.1" xmlns="http://www.w3.org/2000/svg" xmlns:xlink="http://www.w3.org/1999/xlink">
    <!-- Generator: Sketch 54.1 (76490) - https://sketchapp.com -->
    <title>icon_services</title>
    <desc>Created with Sketch.</desc>
    <g id="icon_services" stroke="none" stroke-width="1" fill="none" fill-rule="evenodd">
        <path d="M4.5,29.5 L4.5,12.5 C4.5,5.872583 9.872583,0.5 16.5,0.5 C23.127417,0.5 28.5,5.872583 28.5,12.5 L28.5,29.5 L31,29.5 C31.8284271,29.5 32.5,30.1715729 32.5,31 C32.5,31.8284271 31.8284271,32.5 31,32.5 L2,32.5 C1.17157288,32.5 0.5,31.8284271 0.5,31 C0.5,30.1715729 1.17157288,29.5 2,29.5 L4.5,29.5 Z M7.5,29.5 L25.5,29.5 L25.5,12.5 C25.5,7.52943725 21.4705627,3.5 16.5,3.5 C11.5294373,3.5 7.5,7.52943725 7.5,12.5 L7.5,29.5 Z M11,13.5 C10.1715729,13.5 9.5,12.8284271 9.5,12 C9.5,11.1715729 10.1715729,10.5 11,10.5 L21.1162109,10.5 C21.9446381,10.5 22.6162109,11.1715729 22.6162109,12 C22.6162109,12.8284271 21.9446381,13.5 21.1162109,13.5 L11,13.5 Z M11,19.5 C10.1715729,19.5 9.5,18.8284271 9.5,18 C9.5,17.1715729 10.1715729,16.5 11,16.5 L17,16.5 C17.8284271,16.5 18.5,17.1715729 18.5,18 C18.5,18.8284271 17.8284271,19.5 17,19.5 L11,19.5 Z" id="Combined-Shape" fill="#000000" fill-rule="nonzero"></path>
    </g>
</svg>