<?xml version="1.0" encoding="UTF-8"?>
<svg width="33px" height="33px" viewBox="0 0 33 33" version="1.1" xmlns="http://www.w3.org/2000/svg" xmlns:xlink="http://www.w3.org/1999/xlink">
    <!-- Generator: Sketch 54.1 (76490) - https://sketchapp.com -->
    <title>icon_home</title>
    <desc>Created with Sketch.</desc>
    <g id="icon_home" stroke="none" stroke-width="1" fill="none" fill-rule="evenodd">
        <path d="M4.6875,10.3512576 L4.6875,7.17729977 C4.6875,6.2395618 5.53829207,5.53173556 6.46038207,5.70233015 L9.18318277,6.2060717 L15.4831992,0.397223439 C16.0576135,-0.132407813 16.9423865,-0.132407813 17.5168008,0.397223439 L27.685556,9.77319199 C27.7862635,9.845338 27.8773352,9.92948574 27.9568811,10.0233638 L32.5168008,14.2277785 C33.5209732,15.1536626 32.8658783,16.830555 31.5,16.830555 L28.3125,16.830555 L28.3125,31.5 C28.3125,32.3284271 27.6409271,33 26.8125,33 L6.1875,33 C5.35907288,33 4.6875,32.3284271 4.6875,31.5 L4.6875,16.830555 L1.5,16.830555 C0.134121657,16.830555 -0.52097321,15.1536626 0.483199205,14.2277785 L4.6875,10.3512576 Z M7.6875,8.98026782 L7.6875,11.0085066 C7.6875,11.4274469 7.51229914,11.8272973 7.20430079,12.1112831 L5.33965558,13.830555 L6.1875,13.830555 C7.01592712,13.830555 7.6875,14.5021279 7.6875,15.330555 L7.6875,30 L25.3125,30 L25.3125,15.330555 C25.3125,14.5021279 25.9840729,13.830555 26.8125,13.830555 L27.6603444,13.830555 L25.7956992,12.1112831 C25.7922128,12.1080685 25.7887434,12.1048391 25.7852911,12.1015949 C25.7817796,12.0984183 25.7782821,12.0952239 25.7747985,12.092012 L16.5,3.54030452 L10.6650497,8.92034464 C10.3177476,9.24056995 9.83988512,9.37847759 9.37536679,9.2925377 L7.6875,8.98026782 Z" id="Home" fill="#000000" fill-rule="nonzero"></path>
    </g>
</svg>