<?xml version="1.0" encoding="UTF-8"?>
<svg width="33px" height="33px" viewBox="0 0 33 33" version="1.1" xmlns="http://www.w3.org/2000/svg" xmlns:xlink="http://www.w3.org/1999/xlink">
    <!-- Generator: Sketch 54.1 (76490) - https://sketchapp.com -->
    <title>icon_reporting</title>
    <desc>Created with Sketch.</desc>
    <g id="icon_reporting" stroke="none" stroke-width="1" fill="none" fill-rule="evenodd">
        <path d="M4.70328838,29.5 L31,29.5 C31.8284271,29.5 32.5,30.1715729 32.5,31 C32.5,31.8284271 31.8284271,32.5 31,32.5 L2.02320957,32.5 C1.88935162,32.5021969 1.75445765,32.4865061 1.62223945,32.4520674 C1.6102067,32.4489052 1.59860841,32.4457421 1.58706699,32.4424443 C1.45592091,32.4048304 1.32775451,32.3485539 1.20623182,32.2727655 C1.16933276,32.2497532 1.1337797,32.2253994 1.09959644,32.1998066 C1.01600872,32.1369776 0.939199235,32.065617 0.870461106,31.9870179 C0.797482368,31.9034558 0.738024365,31.8179973 0.688148943,31.7279196 C0.588012644,31.5478401 0.523879637,31.3449877 0.5054772,31.1290895 C0.500990602,31.0776057 0.499148253,31.0258198 0.5,30.973947 L0.5,2 C0.5,1.17157288 1.17157288,0.5 2,0.5 C2.82842712,0.5 3.5,1.17157288 3.5,2 L3.5,25.7602481 L9.7702501,15.7062318 C10.1946824,15.025677 11.0793867,14.7994193 11.7784334,15.1926512 L16.482814,17.8389879 L18.8106293,5.63929566 C19.045123,4.41035367 20.5924795,3.99166717 21.4146674,4.93469042 L26.0777554,10.2831038 L29.9265129,6.33952693 C30.5051285,5.74665637 31.4548056,5.73510042 32.0476762,6.313716 C32.6405468,6.89233159 32.6521027,7.84200875 32.0734871,8.43487932 L27.0891121,13.5420512 C26.477273,14.1689639 25.4606773,14.1404004 24.8850045,13.4801221 L21.1795889,9.23012847 L19.0387144,20.450095 C18.8465686,21.4570993 17.7233841,21.9789217 16.8298791,21.4763019 L11.5571218,18.5102385 L4.70328838,29.5 Z" id="Line-Graph" fill="#000000" fill-rule="nonzero"></path>
    </g>
</svg>