<?xml version="1.0" encoding="UTF-8"?>
<svg width="33px" height="33px" viewBox="0 0 33 33" version="1.1" xmlns="http://www.w3.org/2000/svg" xmlns:xlink="http://www.w3.org/1999/xlink">
    <!-- Generator: Sketch 54.1 (76490) - https://sketchapp.com -->
    <title>icon_bookings</title>
    <desc>Created with Sketch.</desc>
    <g id="icon_bookings" stroke="none" stroke-width="1" fill="none" fill-rule="evenodd">
        <path d="M15.5,3 L6.5,3 L6.5,30 L27.5,30 L27.5,15 L17,15 C16.1715729,15 15.5,14.3284271 15.5,13.5 L15.5,3 Z M30.5,13.5839324 L30.5,31.5 C30.5,32.3284271 29.8284271,33 29,33 L5,33 C4.17157288,33 3.5,32.3284271 3.5,31.5 L3.5,1.5 C3.5,0.671572875 4.17157288,-3.09752224e-14 5,-3.09752224e-14 L16.9160676,-3.09752224e-14 C16.9788607,-0.00398266996 17.0420589,-0.00403625825 17.1052741,-1.41010527e-09 L17.6512308,-3.09752224e-14 C18.0530863,-3.09752224e-14 18.4381374,0.161244697 18.720081,0.447593621 L30.0688502,11.9736874 C30.3451399,12.2542941 30.5,12.6322967 30.5,13.0260937 L30.5,13.3947247 C30.5040363,13.4579411 30.5039827,13.5211393 30.5,13.5839324 Z M18.5,5.12132034 L18.5,12 L25.3786797,12 L18.5,5.12132034 Z M11,21.5 C10.1715729,21.5 9.5,20.8284271 9.5,20 C9.5,19.1715729 10.1715729,18.5 11,18.5 L22,18.5 C22.8284271,18.5 23.5,19.1715729 23.5,20 C23.5,20.8284271 22.8284271,21.5 22,21.5 L11,21.5 Z M11,26.5 C10.1715729,26.5 9.5,25.8284271 9.5,25 C9.5,24.1715729 10.1715729,23.5 11,23.5 L22,23.5 C22.8284271,23.5 23.5,24.1715729 23.5,25 C23.5,25.8284271 22.8284271,26.5 22,26.5 L11,26.5 Z" id="Combined-Shape" fill="#000000" fill-rule="nonzero"></path>
    </g>
</svg>