<?xml version="1.0" encoding="UTF-8"?>
<svg width="33px" height="33px" viewBox="0 0 33 33" version="1.1" xmlns="http://www.w3.org/2000/svg" xmlns:xlink="http://www.w3.org/1999/xlink">
    <!-- Generator: Sketch 54.1 (76490) - https://sketchapp.com -->
    <title>icon_settings</title>
    <desc>Created with Sketch.</desc>
    <g id="icon_settings" stroke="none" stroke-width="1" fill="none" fill-rule="evenodd">
        <path d="M7.97840419,18.7449496 C7.98865808,18.7638335 7.99855795,18.7830207 8.00809144,18.8025069 L8.9819216,20.7929898 C9.09582299,21.0258012 9.14393109,21.2737096 9.13347745,21.5156295 C9.22546404,21.9887094 9.08824669,22.4975397 8.72182541,22.863961 L6.95405845,24.631728 L8.36827202,26.0459415 L10.136039,24.2781746 C10.6656482,23.7485654 11.4927575,23.6977756 12.0794276,24.1258051 C12.1074795,24.1352295 12.1354253,24.1455327 12.1632331,24.1567284 L14.218823,24.9843259 C14.2595198,25.0007108 14.2991052,25.0186785 14.3375367,25.0381296 C15.0034204,25.1912537 15.5,25.7876357 15.5,26.5 L15.5,29 L17.5,29 L17.5,26.5 C17.5,25.7893005 17.9942612,25.194042 18.6577973,25.0392105 C18.7395848,24.9852048 18.8279005,24.93846 18.9222188,24.9002191 L20.975784,24.0676102 C21.0025917,24.0567411 21.0295299,24.0467027 21.0565699,24.037483 C21.6297794,23.7081029 22.3741199,23.7883335 22.863961,24.2781746 L24.631728,26.0459415 L26.0459415,24.631728 L24.2781746,22.863961 C23.8220056,22.4077921 23.7210687,21.7309102 23.9753639,21.1770665 C23.9840457,21.0598121 24.0067499,20.9417102 24.0445555,20.824872 L24.7267463,18.7165591 C24.8752875,18.2574921 25.2241978,17.9191838 25.6454132,17.767083 C25.8878926,17.5986936 26.1824207,17.5 26.5,17.5 L29,17.5 L29,15.5 L26.5,15.5 C25.9306239,15.5 25.4353424,15.1827637 25.1812662,14.7154018 C25.0510025,14.5671144 24.9480428,14.3905232 24.8829413,14.1909896 L24.2386856,12.216372 C23.692698,11.6280778 23.705861,10.7083526 24.2781746,10.136039 L26.0459415,8.36827202 L24.631728,6.95405845 L22.863961,8.72182541 C22.339446,9.24634046 21.5231263,9.30120305 20.9375676,8.88641318 C20.8753411,8.86914643 20.8135194,8.84766561 20.7524487,8.82183045 L18.7673677,7.98206923 C18.0494131,7.87028295 17.5,7.24930263 17.5,6.5 L17.5,4 L15.5,4 L15.5,6.5 C15.5,7.27327317 14.9148726,7.90988253 14.1632242,7.99122174 L12.1642618,8.92632285 C12.0348699,8.98685151 11.9012414,9.02731682 11.766885,9.04899098 C11.2239977,9.27177174 10.5769301,9.16271655 10.136039,8.72182541 L8.36827202,6.95405845 L6.95405845,8.36827202 L8.72182541,10.136039 C9.20171725,10.6159308 9.28846892,11.3400886 8.98208042,11.9082941 C8.97471136,12.1021338 8.92938357,12.2977418 8.84226061,12.4845776 L7.99702408,14.2971932 C7.98165047,14.330162 7.96523109,14.3623095 7.94782385,14.3936145 C7.77492351,15.0311087 7.19221947,15.5 6.5,15.5 L4,15.5 L4,17.5 L6.5,17.5 C7.24148433,17.5 7.85731024,18.0380077 7.97840419,18.7449495 Z M5.49878345,20.5 L2.5,20.5 C1.67157288,20.5 1,19.8284271 1,19 L1,14 C1,13.1715729 1.67157288,12.5 2.5,12.5 L5.52493527,12.5 L5.94414582,11.6010001 L3.77207794,9.42893219 C3.1862915,8.84314575 3.1862915,7.89339828 3.77207794,7.30761184 L7.30761184,3.77207794 C7.89339828,3.1862915 8.84314575,3.1862915 9.42893219,3.77207794 L11.5557943,5.8989401 L12.5,5.45724706 L12.5,2.5 C12.5,1.67157288 13.1715729,1 14,1 L19,1 C19.8284271,1 20.5,1.67157288 20.5,2.5 L20.5,5.45763823 L21.4736277,5.86951805 L23.5710678,3.77207794 C24.1568542,3.1862915 25.1066017,3.1862915 25.6923882,3.77207794 L29.2279221,7.30761184 C29.8137085,7.89339828 29.8137085,8.84314575 29.2279221,9.42893219 L27.1596751,11.4971791 L27.486864,12.5 L30.5,12.5 C31.3284271,12.5 32,13.1715729 32,14 L32,19 C32,19.8284271 31.3284271,20.5 30.5,20.5 L27.3028145,20.5 L27.0226631,21.3658088 L29.2279221,23.5710678 C29.8137085,24.1568542 29.8137085,25.1066017 29.2279221,25.6923882 L25.6923882,29.2279221 C25.1066017,29.8137085 24.1568542,29.8137085 23.5710678,29.2279221 L21.4540477,27.110902 L20.5,27.4977164 L20.5,30.5 C20.5,31.3284271 19.8284271,32 19,32 L14,32 C13.1715729,32 12.5,31.3284271 12.5,30.5 L12.5,27.5263266 L11.5236245,27.1332298 L9.42893219,29.2279221 C8.84314575,29.8137085 7.89339828,29.8137085 7.30761184,29.2279221 L3.77207794,25.6923882 C3.1862915,25.1066017 3.1862915,24.1568542 3.77207794,23.5710678 L5.94043064,21.4027151 L5.49878345,20.5 Z M16.5,22 C13.4624339,22 11,19.5375661 11,16.5 C11,13.4624339 13.4624339,11 16.5,11 C19.5375661,11 22,13.4624339 22,16.5 C22,19.5375661 19.5375661,22 16.5,22 Z M16.5,19 C17.8807119,19 19,17.8807119 19,16.5 C19,15.1192881 17.8807119,14 16.5,14 C15.1192881,14 14,15.1192881 14,16.5 C14,17.8807119 15.1192881,19 16.5,19 Z" id="Combined-Shape" fill="#000000" fill-rule="nonzero"></path>
    </g>
</svg>