<?xml version="1.0" encoding="UTF-8"?>
<svg width="33px" height="33px" viewBox="0 0 33 33" version="1.1" xmlns="http://www.w3.org/2000/svg" xmlns:xlink="http://www.w3.org/1999/xlink">
    <!-- Generator: Sketch 54.1 (76490) - https://sketchapp.com -->
    <title>icon_vendors</title>
    <desc>Created with Sketch.</desc>
    <g id="icon_vendors" stroke="none" stroke-width="1" fill="none" fill-rule="evenodd">
        <g id="Group" transform="translate(1.500000, 0.000000)" fill="#000000" fill-rule="nonzero">
            <path d="M16.4431875,19.5896768 C16.4801935,19.7200871 16.5,19.8577305 16.5,20 L16.5,24 C16.5,24.8284271 15.8284271,25.5 15,25.5 C14.1715729,25.5 13.5,24.8284271 13.5,24 L13.5,20 C13.5,19.8577345 13.5198054,19.7200947 13.5568095,19.5896876 C8.37854464,20.238057 4.27048605,24.3295188 3.59694314,29.5 L26.4030669,29.5 C25.7295719,24.3293778 21.6216775,20.2380022 16.4431875,19.5896768 Z M10.5105545,17.2084136 C8.40009081,15.86867 7,13.6120993 7,11.0409326 L7,7.95906737 C7,3.82236859 10.624128,0.5 15,0.5 C19.37618,0.5 23,3.82224425 23,7.95906737 L23,11.0409326 C23,13.6121581 21.6000484,15.868696 19.4896262,17.2084178 C25.3002747,19.0986284 29.5,24.5587565 29.5,31 C29.5,31.8284271 28.8284271,32.5 28,32.5 L2,32.5 C1.17157288,32.5 0.5,31.8284271 0.5,31 C0.5,24.558862 4.69996265,19.0986418 10.5105545,17.2084136 Z M15,15.5 C17.7747166,15.5 20,13.4599056 20,11.0409326 L20,7.95906737 C20,5.54009444 17.7747166,3.5 15,3.5 C12.2255628,3.5 10,5.54025353 10,7.95906737 L10,11.0409326 C10,13.4597465 12.2255628,15.5 15,15.5 Z" id="Combined-Shape"></path>
        </g>
    </g>
</svg>