<?xml version="1.0" encoding="UTF-8"?>
<svg width="33px" height="33px" viewBox="0 0 33 33" version="1.1" xmlns="http://www.w3.org/2000/svg" xmlns:xlink="http://www.w3.org/1999/xlink">
    <!-- Generator: Sketch 54.1 (76490) - https://sketchapp.com -->
    <title>icon_calendar</title>
    <desc>Created with Sketch.</desc>
    <g id="icon_calendar" stroke="none" stroke-width="1" fill="none" fill-rule="evenodd">
        <path d="M21.5000023,6.49999766 L17.5000023,6.49999766 L17.5000023,8.00000234 C17.4999977,8.82842583 16.8284258,9.49999766 16.0000023,9.50000234 C15.1715742,9.49999766 14.5000023,8.82842583 14.5000023,8.00000234 L14.5000023,6.49999766 L10.5000023,6.49999766 L10.5000023,8.00000234 C10.4999977,8.82842583 9.82842583,9.49999766 9.00000234,9.50000234 C8.17157417,9.49999766 7.50000234,8.82842583 7.50000234,8.00000234 L7.50000234,6.49999766 L4.49999766,6.49999766 L4.49999766,11.5000023 L28.4999977,11.5000023 L28.4999977,6.49999766 L24.5000023,6.49999766 L24.5000023,8.00000234 C24.4999977,8.82842583 23.8284258,9.49999766 23.0000023,9.50000234 C22.1715742,9.49999766 21.5000023,8.82842583 21.5000023,8.00000234 L21.5000023,6.49999766 Z M24.5000023,3.50000234 L30.0000023,3.50000234 C30.8284258,3.50000234 31.4999977,4.17157417 31.5000023,5.00000234 L31.5000023,30.0000023 C31.4999977,30.8284258 30.8284258,31.4999977 30.0000023,31.5000023 L3.00000234,31.5000023 C2.17157417,31.4999977 1.50000234,30.8284258 1.50000234,30.0000023 L1.50000234,5.00000234 C1.50000234,4.17157417 2.17157417,3.50000234 3.00000234,3.50000234 L7.50000234,3.50000234 L7.50000234,2.00000234 C7.50000234,1.17157417 8.17157417,0.500002344 9.00000234,0.500002344 C9.82842583,0.500002344 10.4999977,1.17157417 10.5000023,2.00000234 L10.5000023,3.50000234 L14.5000023,3.50000234 L14.5000023,2.00000234 C14.5000023,1.17157417 15.1715742,0.500002344 16.0000023,0.500002344 C16.8284258,0.500002344 17.4999977,1.17157417 17.5000023,2.00000234 L17.5000023,3.50000234 L21.5000023,3.50000234 L21.5000023,2.00000234 C21.5000023,1.17157417 22.1715742,0.500002344 23.0000023,0.500002344 C23.8284258,0.500002344 24.4999977,1.17157417 24.5000023,2.00000234 L24.5000023,3.50000234 Z M4.49999766,14.5000023 L4.49999766,28.4999977 L28.4999977,28.4999977 L28.4999977,14.5000023 L4.49999766,14.5000023 Z" id="Combined-Shape" fill="#000000" fill-rule="nonzero"></path>
    </g>
</svg>