<?xml version="1.0" encoding="UTF-8"?>
<svg width="33px" height="33px" viewBox="0 0 33 33" version="1.1" xmlns="http://www.w3.org/2000/svg" xmlns:xlink="http://www.w3.org/1999/xlink">
    <!-- Generator: Sketch 54.1 (76490) - https://sketchapp.com -->
    <title>icon_accounts</title>
    <desc>Created with Sketch.</desc>
    <g id="icon_accounts" stroke="none" stroke-width="1" fill="none" fill-rule="evenodd">
        <g id="Group" transform="translate(11.500000, 6.500000)" stroke="#000000" stroke-linecap="round" stroke-linejoin="round" stroke-width="3">
            <path d="M5,11 L5,11 C2.37833333,11 0.233333333,9.03380915 0.233333333,6.63001726 L0.233333333,4.36998274 C0.233333333,1.96619085 2.37833333,0 5,0 C7.6219954,0 9.76666667,1.96619085 9.76666667,4.36998274 L9.76666667,6.63001726 C9.76666667,9.03380915 7.6219954,11 5,11 Z" id="Stroke-1221"></path>
        </g>
        <path d="M9.51983562,27.4690382 C11.5363138,28.7549043 13.9311437,29.5 16.5,29.5 C19.0688563,29.5 21.4636862,28.7549043 23.4801644,27.4690382 C23.2088225,23.8510828 20.1873643,21 16.5,21 C12.8126357,21 9.79117754,23.8510828 9.51983562,27.4690382 Z M6.88349057,25.2478617 C8.07881824,21.063305 11.9316725,18 16.5,18 C21.0683275,18 24.9211818,21.063305 26.1165094,25.2478617 C28.2185551,22.9384347 29.5,19.8688661 29.5,16.5 C29.5,9.32029825 23.6797017,3.5 16.5,3.5 C9.32029825,3.5 3.5,9.32029825 3.5,16.5 C3.5,19.8688661 4.78144489,22.9384347 6.88349057,25.2478617 Z M16.5,32.5 C7.663444,32.5 0.5,25.336556 0.5,16.5 C0.5,7.663444 7.663444,0.5 16.5,0.5 C25.336556,0.5 32.5,7.663444 32.5,16.5 C32.5,25.336556 25.336556,32.5 16.5,32.5 Z" id="Combined-Shape" fill="#000000" fill-rule="nonzero"></path>
    </g>
</svg>